<svg id="_x31__px" enable-background="new 0 0 24 24" height="512" viewBox="0 0 24 24" width="512" xmlns="http://www.w3.org/2000/svg"><path d="m.5 12c-.062 0-.125-.012-.185-.035-.19-.076-.315-.26-.315-.465 0-1.684.182-3.362.542-4.988.445-2.034 2.291-3.512 4.388-3.512h1.77c2.285 0 4.493-.945 6.057-2.594.355-.319.788-.451 1.214-.391.435.061.821.311 1.061.688 1.025 1.631 2.574 4.093 2.897 8.904.019.276-.19.514-.465.533-.274.017-.514-.189-.533-.465-.306-4.56-1.773-6.894-2.745-8.438-.08-.126-.209-.211-.353-.231-.138-.017-.273.023-.38.118-1.723 1.817-4.195 2.876-6.753 2.876h-1.77c-1.631 0-3.066 1.147-3.412 2.727-.251 1.137-.412 2.3-.48 3.473l1.378-1.462c1.299-1.368 3.432-1.582 4.963-.496.944.679 2.301.677 3.239.002 1.452-1.043 3.689-.843 4.963.49l.473.503c.189.201.179.518-.022.707s-.518.181-.707-.022l-.47-.5c-.935-.978-2.594-1.128-3.654-.367-1.281.921-3.123.921-4.404 0-1.124-.796-2.696-.638-3.655.369l-2.278 2.418c-.096.103-.229.158-.364.158z"/><circle cx="5" cy="13" r="1"/><path d="m9.82 21h-1.64c-2.185 0-4.239-.852-5.784-2.396-1.545-1.546-2.396-3.6-2.396-5.784v-1.32c0-.276.224-.5.5-.5s.5.224.5.5v1.32c0 1.917.747 3.719 2.104 5.077 1.355 1.356 3.159 2.103 5.076 2.103h1.64c.194 0 .388-.009.582-.028.284-.02.52.175.546.449.027.275-.174.52-.449.547-.227.021-.453.032-.679.032z"/><path d="m16.5 18c-.174 0-.343-.091-.435-.253-.137-.24-.053-.546.188-.682l.168-.096c.523-.297.715-.792.478-1.232-.131-.243-.041-.546.203-.678.243-.129.546-.04.677.203.5.926.136 2.009-.864 2.576l-.168.096c-.078.045-.163.066-.247.066z"/><path d="m17.5 21c-.045 0-.09-.006-.135-.019-.266-.074-.421-.351-.347-.616.139-.495.45-.897.877-1.133.454-.252 1.006-.303 1.56-.138l.186.055c.265.078.417.355.338.62-.078.265-.351.418-.621.339l-.186-.055c-.292-.085-.575-.067-.793.054-.193.106-.331.289-.398.527-.062.221-.262.366-.481.366z"/><path d="m19.553 24c-.373 0-.722-.205-1.015-.378-.179-.106-.425-.251-.538-.251s-.359.145-.538.25c-.373.221-.836.495-1.324.327-.492-.166-.704-.655-.892-1.087-.083-.192-.198-.456-.285-.521-.086-.065-.358-.099-.557-.122-.43-.052-.965-.116-1.266-.549-.291-.417-.191-.932-.104-1.386.043-.226.098-.507.06-.63-.033-.105-.225-.289-.38-.437-.318-.304-.714-.683-.714-1.216s.396-.912.715-1.217c.155-.147.347-.331.38-.438.038-.123-.016-.404-.06-.631-.087-.453-.186-.968.104-1.385.3-.432.835-.496 1.265-.548.199-.023.471-.057.556-.121.087-.066.202-.33.286-.523.187-.431.399-.92.892-1.087.485-.164.95.108 1.323.328.179.106.425.25.538.25s.359-.145.539-.25c.373-.22.838-.493 1.323-.328.493.168.705.657.892 1.088.083.192.198.456.285.521.086.065.358.099.557.122.43.052.965.116 1.266.549.291.417.191.932.104 1.386-.043.226-.098.507-.06.63.033.105.225.289.38.437.319.305.715.684.715 1.217s-.396.912-.715 1.217c-.155.147-.347.331-.38.438-.038.123.016.404.06.631.087.453.186.968-.104 1.385-.3.432-.835.496-1.265.548-.199.023-.471.057-.556.121-.087.066-.202.33-.286.523-.187.431-.399.919-.891 1.088-.106.034-.209.049-.31.049zm-3.1-11c-.001 0-.003 0-.004 0-.07.043-.209.364-.285.536-.148.343-.302.696-.597.921-.302.229-.695.276-1.043.318-.177.021-.506.061-.564.127-.046.084.021.436.057.624.068.354.145.754.033 1.116-.11.354-.381.612-.644.864-.152.145-.406.389-.406.494s.254.349.406.493c.263.252.534.511.644.864.112.362.035.762-.033 1.115-.037.189-.104.541-.056.626.057.065.386.104.563.126.348.042.741.089 1.043.319.294.224.448.577.596.919.075.173.214.493.3.541.076 0 .334-.152.489-.244.309-.182.66-.389 1.046-.389s.737.207 1.046.39c.153.09.407.24.5.24.001 0 .003 0 .004-.001.07-.042.209-.363.284-.536.149-.343.303-.696.597-.921.302-.229.695-.276 1.043-.318.177-.021.506-.061.564-.127.046-.084-.021-.436-.057-.624-.068-.354-.145-.754-.033-1.116.11-.354.381-.612.644-.864.156-.144.41-.388.41-.493s-.254-.349-.406-.493c-.263-.252-.534-.511-.644-.864-.112-.362-.035-.762.033-1.115.037-.189.104-.541.056-.626-.057-.065-.386-.104-.563-.126-.348-.042-.741-.089-1.043-.319-.294-.224-.448-.577-.596-.92-.075-.172-.214-.493-.3-.541-.075 0-.334.153-.489.245-.31.182-.66.389-1.046.389s-.737-.207-1.046-.389c-.155-.092-.409-.241-.503-.241z"/></svg>