<?xml version="1.0" encoding="iso-8859-1"?>
<!-- Generator: Adobe Illustrator 18.1.1, SVG Export Plug-In . SVG Version: 6.00 Build 0)  -->
<svg version="1.1" id="Capa_1" xmlns="http://www.w3.org/2000/svg" xmlns:xlink="http://www.w3.org/1999/xlink" x="0px" y="0px"
	 viewBox="0 0 321.012 321.012" style="enable-background:new 0 0 321.012 321.012;" xml:space="preserve">
<path d="M244.961,321.012h-67.896c-4.418,0-8-3.582-8-8v-81.476c0-4.418,3.582-8,8-8h6.075c4.418,0,8,3.582,8,8
	c0,3.755-2.586,6.905-6.075,7.767v65.709h52.483c1.19-2.924,4.061-4.985,7.413-4.985c4.418,0,8,3.582,8,8v4.985
	C252.961,317.43,249.379,321.012,244.961,321.012z M277.342,290.407h-67.896c-4.418,0-8-3.582-8-8v-81.476c0-4.418,3.582-8,8-8
	h67.896c4.418,0,8,3.582,8,8v81.476C285.342,286.825,281.76,290.407,277.342,290.407z M217.446,274.407h51.896v-65.476h-51.896
	V274.407z M43.669,275.849c-1.001,0-2.02-0.189-3.005-0.589c-4.094-1.661-6.066-6.327-4.405-10.421l27.575-67.958
	c8.519-20.99,17.511-35.853,28.299-46.774c14.288-14.465,31.952-21.799,52.501-21.799h36.576c28.069,0,49.864,13.081,66.632,39.992
	c2.337,3.75,1.191,8.684-2.559,11.021c-3.751,2.338-8.685,1.19-11.021-2.56c-9.401-15.087-20.223-24.681-33.251-29.264
	l-31.628,43.341c-1.506,2.063-3.907,3.284-6.462,3.284c-2.555,0-4.956-1.221-6.462-3.284l-31.65-43.371
	c-19.116,6.692-33.513,24.294-46.15,55.431l-27.575,67.957C49.824,273.964,46.83,275.849,43.669,275.849z M142.338,144.344
	l20.585,28.207l20.584-28.206c-0.76-0.025-1.523-0.037-2.296-0.037h-36.575C143.864,144.308,143.098,144.319,142.338,144.344z
	 M246.585,263.42h-6.382c-4.418,0-8-3.582-8-8s3.582-8,8-8h6.382c4.418,0,8,3.582,8,8S251.003,263.42,246.585,263.42z
	 M249.777,235.918H237.01c-4.418,0-8-3.582-8-8s3.582-8,8-8h12.767c4.418,0,8,3.582,8,8S254.195,235.918,249.777,235.918z
	 M163.516,106.005c-29.225,0-53.001-23.776-53.001-53.002c0-24.076,16.133-44.454,38.158-50.888
	c0.104-0.034,0.209-0.066,0.316-0.097c3.556-1.012,7.213-1.646,10.915-1.896c0.016-0.006,0.035-0.003,0.053-0.004
	c0.018-0.001,0.038-0.001,0.055-0.004c0.017-0.002,0.033-0.003,0.05-0.003c0.627-0.04,1.26-0.07,1.893-0.089
	c0.028,0.003,0.078-0.002,0.116-0.003c0,0,0,0,0,0c0.021-0.001,0.039-0.003,0.063-0.002c0.018,0,0.036-0.001,0.054-0.001
	c0.023-0.001,0.045-0.002,0.067-0.002c0.018,0,0.038-0.001,0.056-0.001c0.024,0,0.048-0.001,0.073-0.002
	c0.017-0.001,0.035-0.002,0.053-0.001c0.017-0.001,0.032-0.001,0.049-0.001c0.029,0,0.058-0.001,0.087-0.002h0.002
	c0.016-0.001,0.027-0.002,0.045,0c0.055-0.001,0.111-0.002,0.167-0.003h0.002c0.057-0.001,0.113-0.001,0.169-0.002h0
	c0.042,0,0.084-0.001,0.126-0.001h0.002c0.015,0,0.025-0.003,0.045-0.001c0.044,0,0.089,0.001,0.13,0c0.017,0,0.034,0,0.05-0.001
	c0.023,0,0.052,0.002,0.075,0c0.018,0.001,0.036,0.001,0.054,0c0.02,0,0.044,0,0.067,0c0.003,0,0.005,0,0.005,0
	c0.015,0,0.026,0,0.039,0c0.015,0.001,0.03,0.001,0.041,0c0.016,0,0.026,0,0.042,0c0.014,0,0.028,0,0.042,0c0.014,0,0.03,0,0.044,0
	c0.016,0,0.032,0.001,0.047,0.001h0C190.856,0.13,213.28,20.339,216.202,47.2c0.208,1.906,0.315,3.843,0.315,5.803
	C216.517,82.229,192.741,106.005,163.516,106.005z M145.269,20.82c-11.19,6.371-18.754,18.41-18.754,32.183
	c0,20.403,16.599,37.002,37.001,37.002c18.684,0,34.178-13.922,36.656-31.937c-1.399,0.11-2.805,0.166-4.215,0.166
	C172.167,58.234,151.929,42.737,145.269,20.82z M160.568,16.116c4.645,15.3,18.776,26.118,35.39,26.118
	c0.979,0,1.956-0.038,2.927-0.114c-4.633-15.03-18.603-26.005-35.106-26.119c-0.014,0-0.032,0.001-0.047,0
	c-0.019,0-0.031-0.002-0.053-0.001c-0.019,0-0.033-0.001-0.054,0c-0.019,0-0.035-0.001-0.055,0c-0.02,0-0.007,0.003-0.059,0
	c-0.016,0-0.03,0.001-0.047,0c-0.005,0-0.01,0-0.015,0C162.479,16.002,161.519,16.041,160.568,16.116z"/>
<g>
</g>
<g>
</g>
<g>
</g>
<g>
</g>
<g>
</g>
<g>
</g>
<g>
</g>
<g>
</g>
<g>
</g>
<g>
</g>
<g>
</g>
<g>
</g>
<g>
</g>
<g>
</g>
<g>
</g>
</svg>
